<svg xmlns="http://www.w3.org/2000/svg" xmlns:xlink="http://www.w3.org/1999/xlink" width="1080" zoomAndPan="magnify" viewBox="0 0 810 1012.49997" height="1350" preserveAspectRatio="xMidYMid meet" version="1.0"><defs><g/><clipPath id="id1"><path d="M 82 71.207031 L 734 71.207031 L 734 940.777344 L 82 940.777344 Z M 82 71.207031 " clip-rule="nonzero"/></clipPath></defs><g clip-path="url(#id1)"><path fill="#1C1C1C" d="M 127.734375 940.355469 C 117.648438 939.195312 110.171875 936.269531 104.707031 931.34375 C 100.054688 927.140625 98.257812 923.113281 97.402344 914.867188 C 96.980469 910.867188 96.648438 836.28125 96.632812 743.246094 C 96.621094 578.796875 96.621094 578.683594 98.316406 573.796875 C 99.996094 568.988281 105.765625 561.769531 107.632812 562.132812 C 108.113281 562.234375 110.574219 561.511719 113.125 560.539062 C 117.632812 558.816406 119.199219 558.757812 168.867188 558.191406 C 207.476562 557.757812 220.113281 557.84375 220.5625 558.566406 C 221.503906 560.089844 220.304688 562.65625 218.347656 563.292969 C 217.359375 563.625 196.476562 563.828125 171.941406 563.769531 C 127.183594 563.65625 115.867188 564.132812 111.589844 566.351562 C 106.140625 569.160156 102.039062 575.539062 101.996094 581.203125 C 101.835938 608.941406 103.359375 911.851562 103.675781 913.894531 C 104.648438 920.011719 108.777344 925.359375 115.039062 928.558594 C 118.675781 930.414062 127.011719 932.761719 129.996094 932.761719 C 131.070312 932.761719 132.605469 933.125 133.429688 933.558594 C 134.402344 934.082031 230.578125 934.386719 406.683594 934.414062 L 678.429688 934.488281 L 683.183594 932.703125 C 688.542969 930.703125 694.183594 925.921875 697.136719 920.894531 C 699.878906 916.199219 702.488281 908.386719 701.5 907.78125 C 700.992188 907.460938 700.746094 848.335938 700.789062 743.59375 L 700.863281 579.914062 L 699.125 576.320312 C 696.921875 571.769531 691.980469 567.292969 686.269531 564.667969 L 681.804688 562.640625 L 644.730469 562.757812 L 607.660156 562.886719 L 607.152344 561.003906 C 606.875 559.972656 606.644531 558.46875 606.628906 557.640625 C 606.613281 556.234375 608.382812 556.175781 644.890625 556.453125 C 687.328125 556.785156 687.09375 556.757812 695.472656 562.320312 C 700.328125 565.539062 704.226562 570.625 705.574219 575.507812 C 706.777344 579.796875 706.878906 905.433594 705.691406 906.171875 C 705.238281 906.445312 705.109375 908.242188 705.398438 910.316406 C 705.820312 913.375 705.472656 914.824219 703.285156 919.257812 C 698.152344 929.675781 689.429688 936.761719 678.136719 939.675781 C 673.585938 940.847656 646.976562 940.949219 401.84375 940.835938 C 252.664062 940.761719 129.300781 940.558594 127.734375 940.371094 Z M 120.488281 929.097656 C 111.664062 925.820312 108.632812 921.691406 109.054688 913.519531 C 109.386719 907.230469 110.96875 906.765625 111.664062 912.734375 C 111.96875 915.273438 112.734375 918.386719 113.402344 919.648438 C 115.199219 923.125 120.808594 927.53125 124.894531 928.675781 C 126.910156 929.226562 128.546875 930.007812 128.546875 930.402344 C 128.546875 931.558594 126.011719 931.152344 120.488281 929.097656 Z M 148.460938 929.242188 C 148.171875 928.792969 148.546875 927.964844 149.285156 927.429688 C 151.183594 926.054688 547.148438 926.167969 548.527344 927.546875 C 549.222656 928.242188 549.179688 928.648438 548.367188 929.183594 C 546.757812 930.226562 149.097656 930.285156 148.460938 929.253906 Z M 650.832031 925.039062 C 650.832031 924.257812 651.804688 923.953125 654.050781 924.039062 C 657.703125 924.183594 657.441406 924.9375 653.484375 925.675781 C 651.527344 926.039062 650.832031 925.863281 650.832031 925.039062 Z M 506.132812 922.53125 C 504.683594 921.894531 502.554688 920.460938 501.4375 919.328125 L 499.382812 917.285156 L 499.382812 893.230469 C 499.382812 869.828125 499.597656 866.796875 502.539062 849.886719 C 502.917969 847.742188 503.875 845.265625 504.683594 844.367188 C 505.511719 843.46875 506.308594 841.046875 506.496094 838.929688 C 506.84375 834.84375 507.945312 832.078125 509.234375 832.078125 C 510.496094 832.078125 510.164062 834.335938 508.382812 837.800781 C 507.484375 839.570312 506.742188 841.222656 506.742188 841.453125 C 506.742188 841.699219 507.484375 841.902344 508.382812 841.902344 C 510.324219 841.902344 510.570312 843.378906 508.757812 844.074219 C 507.292969 844.625 504.394531 849.84375 502.902344 854.582031 C 502.121094 857.046875 502.078125 858.972656 502.714844 862.363281 C 503.234375 865.074219 503.484375 876.507812 503.324219 891.15625 L 503.0625 915.460938 L 505.511719 916.9375 C 512.351562 921.097656 519.773438 922.648438 519.554688 919.894531 C 519.46875 918.878906 520.339844 918.328125 522.714844 917.894531 C 524.511719 917.5625 556.265625 917.269531 593.265625 917.257812 C 662.269531 917.183594 664.136719 917.328125 660.167969 920.257812 C 658.832031 921.242188 648.339844 921.371094 590.09375 921.15625 C 525.394531 920.910156 521.554688 920.964844 521.191406 922.3125 C 520.875 923.515625 519.859375 923.75 514.800781 923.71875 C 511.496094 923.71875 507.597656 923.167969 506.132812 922.53125 Z M 663.109375 915.648438 C 663.109375 915.226562 664.414062 913.328125 666.023438 911.417969 C 669.628906 907.097656 670.992188 904.519531 671.71875 900.605469 C 672.703125 895.417969 673.964844 897.054688 673.328125 902.679688 C 672.644531 908.605469 672.007812 910.097656 668.574219 913.722656 C 666.226562 916.214844 663.109375 917.316406 663.109375 915.648438 Z M 169.535156 914.546875 C 169.5625 913.980469 175.535156 909.097656 182.824219 903.691406 C 190.113281 898.300781 207.953125 884.363281 222.492188 872.738281 C 237.027344 861.101562 249.316406 851.726562 249.8125 851.902344 C 250.316406 852.0625 249.289062 853.277344 247.550781 854.609375 C 245.8125 855.929688 236.824219 863.464844 227.578125 871.347656 C 204.796875 890.808594 203.359375 891.984375 191.042969 901.445312 C 173.492188 914.910156 169.390625 917.417969 169.535156 914.546875 Z M 224.332031 908.34375 C 224.332031 907.359375 227.535156 904.648438 231.289062 902.476562 C 233.085938 901.433594 235.390625 899.824219 236.40625 898.925781 C 237.417969 898.011719 238.246094 897.5625 238.246094 897.910156 C 238.246094 898.925781 231.753906 905.996094 229.375 907.5625 C 227.085938 909.070312 224.332031 909.503906 224.332031 908.34375 Z M 371.378906 908.417969 C 370.726562 907.359375 373.191406 904.140625 374.652344 904.140625 C 375.363281 904.140625 375.785156 904.722656 375.625 905.476562 C 375.292969 907.128906 372 909.417969 371.378906 908.417969 Z M 671.023438 892.144531 C 670.71875 891.839844 670.472656 880.433594 670.472656 866.796875 C 670.472656 843.410156 670.558594 841.945312 672.007812 841.175781 C 672.847656 840.714844 673.761719 840.582031 674.050781 840.875 C 674.949219 841.773438 674.644531 889.375 673.71875 891.101562 C 672.847656 892.738281 671.964844 893.070312 671.023438 892.128906 Z M 110.664062 889.507812 C 109.242188 888.609375 109.777344 885.722656 111.375 885.722656 C 112.082031 885.722656 112.691406 886.652344 112.835938 887.96875 C 113.113281 890.304688 112.546875 890.695312 110.664062 889.507812 Z M 107.082031 842.132812 C 106.867188 824.699219 106.867188 810.109375 107.082031 809.730469 C 107.285156 809.355469 107.867188 809.46875 108.386719 809.976562 C 109.402344 810.992188 110.257812 866.234375 109.328125 871.160156 C 107.996094 878.332031 107.445312 871.246094 107.082031 842.132812 Z M 418.421875 845.207031 C 424.710938 838.351562 426.523438 836.859375 426.523438 838.496094 C 426.523438 840.597656 414.539062 852.480469 412.351562 852.554688 C 411.972656 852.554688 414.710938 849.265625 418.421875 845.207031 Z M 665.644531 837.832031 C 662.847656 834.335938 655.574219 829.671875 652.921875 829.65625 C 651.804688 829.65625 651.574219 829.394531 652.179688 828.800781 C 652.773438 828.195312 654.730469 828.367188 658.628906 829.339844 C 667.023438 831.453125 672.832031 837.324219 669.371094 840.191406 C 668.53125 840.902344 667.6875 840.367188 665.644531 837.816406 Z M 513.089844 832.339844 C 509.207031 831.757812 510.640625 830.628906 515.960938 830.089844 C 525.410156 829.136719 651.066406 829.976562 651.414062 830.988281 C 651.574219 831.484375 650.863281 832.136719 649.832031 832.410156 C 647.789062 832.960938 516.742188 832.886719 513.089844 832.339844 Z M 434.191406 799.183594 C 433.84375 798.632812 433.410156 794.90625 433.21875 790.921875 C 432.914062 784.675781 433.089844 783.386719 434.480469 781.503906 C 435.421875 780.210938 436.292969 777.328125 436.582031 774.488281 C 436.859375 771.835938 437.464844 769.273438 437.960938 768.792969 C 439.25 767.503906 445.308594 765.835938 448.785156 765.824219 C 451.742188 765.824219 451.816406 765.894531 452.367188 769.546875 C 452.667969 771.605469 452.742188 774.910156 452.511719 776.910156 C 452.132812 780.257812 452.25 780.546875 453.960938 780.546875 C 455.769531 780.546875 455.816406 780.75 455.683594 788.300781 C 455.597656 793.082031 455.175781 796.429688 454.570312 797.039062 C 454.019531 797.574219 449.972656 798.5 445.582031 799.082031 C 435.511719 800.398438 434.945312 800.414062 434.191406 799.183594 Z M 446.46875 793.9375 L 450.265625 793.429688 L 450.265625 789.847656 C 450.265625 786.660156 450.0625 786.285156 448.378906 786.285156 C 447.351562 786.285156 446.148438 785.953125 445.726562 785.53125 C 445.292969 785.125 443.480469 784.660156 441.683594 784.503906 C 437.929688 784.183594 437.496094 785.023438 438.363281 790.878906 C 438.960938 794.847656 439.191406 794.9375 446.46875 793.9375 Z M 447.265625 775.359375 C 447.191406 773.183594 446.929688 771.214844 446.714844 770.980469 C 446.480469 770.75 445.164062 770.808594 443.769531 771.113281 C 441.4375 771.632812 441.265625 771.921875 441.265625 775.214844 C 441.265625 778.996094 441.972656 779.734375 445.351562 779.472656 C 447.25 779.328125 447.394531 779.039062 447.265625 775.359375 Z M 467.625 797.992188 C 467.207031 797.183594 466.625 794.703125 466.335938 792.5 L 465.816406 788.488281 L 471.132812 783.574219 C 476.277344 778.835938 476.46875 778.53125 476.46875 774.691406 L 476.46875 770.722656 L 471.699219 770.722656 C 467.597656 770.722656 466.671875 771.023438 465.105469 772.820312 C 462.625 775.675781 461.265625 774.980469 461.570312 771.039062 C 461.929688 766.285156 463.222656 765.722656 473.175781 765.996094 L 481.785156 766.214844 L 481.480469 773.996094 C 481.191406 781.820312 480.539062 783.820312 478.335938 783.820312 C 477.671875 783.820312 476.148438 784.589844 474.960938 785.515625 C 473.132812 786.9375 472.714844 788.050781 472.367188 792.183594 C 472.046875 796.082031 471.582031 797.386719 470.175781 798.3125 C 468.582031 799.355469 468.324219 799.328125 467.625 797.992188 Z M 596.050781 798.441406 C 587.949219 797.585938 586.222656 796.644531 588.382812 794.253906 C 589.644531 792.847656 590.628906 792.691406 595.773438 793.023438 L 601.714844 793.398438 L 601.714844 783.023438 L 595.570312 783.546875 C 589.773438 784.023438 589.425781 783.964844 589.425781 782.402344 C 589.425781 779.980469 590.90625 779.125 596.355469 778.359375 C 600.992188 777.71875 601.253906 777.546875 601.773438 775.054688 C 602.0625 773.605469 602.109375 772.214844 601.875 771.980469 C 601.628906 771.734375 598.210938 771.53125 594.253906 771.53125 C 590.308594 771.53125 586.875 771.226562 586.644531 770.851562 C 586.410156 770.472656 586.789062 769.375 587.46875 768.402344 C 588.601562 766.765625 589.410156 766.621094 597.542969 766.621094 L 606.367188 766.621094 L 606.90625 774.605469 C 607.195312 778.996094 607.441406 785.792969 607.441406 789.703125 C 607.441406 796.125 607.265625 796.9375 605.613281 798.09375 C 604.613281 798.789062 603.601562 799.3125 603.367188 799.253906 C 603.136719 799.183594 599.832031 798.820312 596.050781 798.429688 Z M 245.609375 793.644531 L 245.609375 788.734375 L 241.882812 788.734375 C 238.96875 788.734375 237.707031 788.269531 236.042969 786.601562 C 233.96875 784.53125 233.925781 784.300781 234.375 776.269531 C 234.753906 769.34375 235.101562 767.777344 236.5625 766.316406 C 239.230469 763.648438 239.839844 765.707031 239.289062 775.460938 L 238.808594 783.953125 L 242 783.355469 C 243.765625 783.039062 245.289062 782.707031 245.40625 782.617188 C 245.519531 782.53125 245.839844 780.183594 246.128906 777.402344 C 246.722656 771.722656 247.96875 769.386719 250 770.15625 C 251.070312 770.574219 251.347656 771.867188 251.347656 776.835938 C 251.347656 781.660156 251.59375 782.996094 252.519531 782.996094 C 254.765625 782.996094 254.898438 784.894531 252.765625 786.71875 C 251.273438 788.007812 250.476562 789.71875 250.070312 792.53125 C 249.449219 796.835938 248.507812 798.558594 246.738281 798.558594 C 245.910156 798.558594 245.609375 797.269531 245.609375 793.644531 Z M 283.058594 797.980469 C 281.261719 797.53125 281.171875 794.226562 282.914062 792.472656 C 284.363281 791.039062 286.535156 790.746094 286.535156 792.007812 C 286.535156 792.472656 288.824219 792.820312 291.769531 792.820312 C 297.375 792.820312 297.957031 792.296875 297.984375 787.226562 C 298 785.402344 297.769531 785.3125 293.289062 785.589844 L 288.59375 785.863281 L 288.347656 777.371094 C 288.042969 766.34375 288.347656 765.953125 296.925781 766.328125 C 300.363281 766.488281 303.332031 766.78125 303.523438 766.96875 C 304.074219 767.519531 299.957031 769.980469 296.566406 771.15625 C 293.652344 772.15625 293.492188 772.386719 293.492188 775.765625 L 293.492188 779.3125 L 298.710938 779.5625 L 303.914062 779.808594 L 303.433594 783.257812 C 303.160156 785.140625 302.710938 788.601562 302.421875 790.949219 C 302.128906 793.296875 301.289062 795.734375 300.566406 796.371094 C 299.230469 797.515625 286.042969 798.734375 283.058594 797.980469 Z M 310.507812 797.980469 C 308.027344 797.5 307.523438 794.183594 308 781.734375 C 308.289062 774.070312 308.726562 771.125 309.796875 769.488281 C 312.230469 765.78125 313.175781 767.375 312.929688 774.777344 L 312.695312 781.53125 L 327.882812 780.953125 L 328.101562 785.445312 C 328.21875 787.921875 328.753906 790.792969 329.277344 791.820312 C 330.828125 794.847656 328.074219 796.890625 321.246094 797.761719 C 315.363281 798.53125 313.550781 798.558594 310.507812 797.980469 Z M 323.058594 790.71875 C 323.796875 787.75 322.40625 786.761719 317.433594 786.71875 L 313.144531 786.71875 L 312.898438 789.792969 L 312.636719 792.863281 L 317.582031 792.863281 C 322.21875 792.863281 322.566406 792.71875 323.058594 790.746094 Z M 340.160156 797.734375 C 339.886719 797.285156 339.914062 794.242188 340.21875 790.980469 C 340.753906 785.503906 341.03125 784.820312 343.855469 782.183594 C 346.378906 779.820312 347.03125 778.546875 347.507812 774.96875 L 348.101562 770.621094 L 342.898438 771.199219 C 338.972656 771.648438 337.261719 772.257812 335.898438 773.707031 C 333.347656 776.445312 332.378906 776.113281 332.378906 772.488281 C 332.378906 767.765625 333.941406 766.851562 343.21875 766.171875 C 353.492188 765.417969 353.667969 765.5625 353.101562 773.835938 C 352.652344 780.226562 351.261719 783.820312 349.246094 783.820312 C 347.363281 783.820312 346.261719 785.921875 345.769531 790.488281 C 345.507812 792.894531 344.769531 795.703125 344.132812 796.71875 C 342.929688 798.644531 341.015625 799.136719 340.160156 797.734375 Z M 486.816406 797.632812 C 485.410156 796.804688 485.335938 795.890625 485.902344 783.9375 C 486.222656 776.894531 486.785156 770.34375 487.164062 769.375 C 487.976562 767.230469 492.351562 766.027344 494.089844 767.476562 C 495.730469 768.835938 495.597656 769.386719 493.453125 770.328125 C 491.816406 771.039062 491.582031 771.820312 491.367188 777.199219 L 491.121094 783.257812 L 498.933594 782.75 C 505.960938 782.285156 506.757812 782.371094 506.832031 783.648438 C 507.511719 795.296875 507.496094 795.355469 504.800781 796.992188 C 502.816406 798.210938 500.714844 798.542969 495.292969 798.53125 C 491.46875 798.53125 487.65625 798.109375 486.816406 797.632812 Z M 500.539062 793.152344 C 501.308594 792.847656 501.84375 791.691406 501.84375 790.285156 C 501.84375 788.039062 501.671875 787.921875 498.367188 787.996094 C 493.105469 788.125 490.785156 788.980469 490.785156 790.804688 C 490.785156 791.921875 491.539062 792.558594 493.234375 792.921875 C 496.671875 793.660156 499.03125 793.734375 500.539062 793.152344 Z M 575.207031 796.71875 C 574.933594 795.703125 574.714844 793.644531 574.703125 792.140625 C 574.6875 789.457031 574.644531 789.414062 571.222656 789.632812 C 569.308594 789.734375 566.859375 789.761719 565.789062 789.691406 L 563.832031 789.558594 L 564.222656 779.515625 C 564.628906 769.082031 565.613281 765.519531 567.992188 765.996094 C 569.195312 766.230469 569.367188 767.488281 569.367188 775.257812 C 569.367188 784.066406 569.410156 784.242188 571.308594 784.503906 C 574.296875 784.9375 575.050781 783.488281 575.570312 776.316406 C 575.949219 771.226562 576.410156 769.429688 577.542969 768.589844 C 578.367188 767.996094 579.339844 767.707031 579.730469 767.9375 C 580.859375 768.648438 580.601562 796.429688 579.441406 797.574219 C 577.875 799.152344 575.746094 798.71875 575.207031 796.71875 Z M 162.113281 797.195312 C 156.765625 796.617188 155.5625 796.125 155.5625 794.472656 C 155.5625 792.472656 157.910156 791.195312 161.589844 791.195312 C 164.433594 791.195312 164.445312 791.195312 164.96875 786.894531 C 165.257812 784.53125 165.375 779.835938 165.230469 776.460938 L 164.984375 770.316406 L 161.15625 770.316406 C 156.925781 770.316406 155.9375 769.777344 156.664062 767.878906 C 157.375 766.070312 160.722656 764.996094 165.75 764.996094 C 170.402344 764.996094 172.390625 766.230469 171.085938 768.300781 C 170.113281 769.824219 170.054688 791.445312 171.011719 790.847656 C 171.417969 790.601562 172.34375 789.097656 173.097656 787.515625 C 173.851562 785.9375 174.78125 784.648438 175.140625 784.648438 C 175.519531 784.648438 176.011719 786.761719 176.242188 789.34375 C 176.578125 793.023438 176.375 794.339844 175.332031 795.398438 C 173.910156 796.820312 167.128906 797.734375 162.113281 797.195312 Z M 206.5625 796.386719 C 205.578125 793.792969 209.1875 792.007812 215.390625 792.007812 C 220.664062 792.007812 221.054688 791.878906 221.519531 790.023438 C 222.59375 785.761719 221.867188 785.066406 216.128906 784.835938 C 208.460938 784.53125 207.289062 783.792969 210.054688 781.007812 C 210.953125 780.125 212.910156 779.734375 216.503906 779.734375 C 222.128906 779.734375 222.652344 779.226562 222.679688 773.792969 C 222.695312 771.589844 222.578125 771.546875 217.882812 771.546875 C 210.417969 771.546875 207.824219 770.824219 208.113281 768.824219 C 208.460938 766.503906 211.808594 765.792969 219.257812 766.476562 C 226.707031 767.15625 226.59375 766.9375 226.679688 779.734375 C 226.753906 789.398438 225.738281 795.050781 223.679688 796.632812 C 222.765625 797.3125 219.605469 797.6875 214.679688 797.71875 C 208.347656 797.71875 207 797.515625 206.5625 796.386719 Z M 359.191406 790.167969 C 358.941406 786.007812 359.089844 781.980469 359.480469 781.210938 C 359.886719 780.460938 360.21875 777.269531 360.21875 774.140625 C 360.21875 769.867188 360.582031 767.996094 361.710938 766.621094 C 363.101562 764.894531 363.582031 764.808594 369.480469 765.359375 L 375.769531 765.953125 L 375.769531 772.835938 C 375.769531 778.34375 376.015625 779.734375 376.972656 779.734375 C 377.625 779.734375 378.507812 780.371094 378.929688 781.167969 C 379.898438 783.007812 379.449219 794.386719 378.363281 795.472656 C 377.160156 796.675781 371.246094 797.660156 365.03125 797.703125 L 359.625 797.703125 L 359.191406 790.125 Z M 372.292969 792.3125 C 373.796875 791.90625 374.132812 791.242188 374.132812 788.632812 C 374.132812 785.820312 373.914062 785.457031 372.132812 785.457031 C 371.03125 785.457031 369.914062 785.097656 369.625 784.648438 C 369.347656 784.183594 367.8125 783.820312 366.21875 783.820312 C 363.914062 783.820312 363.421875 784.082031 363.8125 785.109375 C 364.089844 785.835938 364.304688 787.851562 364.304688 789.617188 C 364.304688 792.777344 364.347656 792.820312 367.378906 792.820312 C 369.074219 792.804688 371.277344 792.589844 372.292969 792.3125 Z M 371.261719 775.664062 C 372.160156 771.605469 371.132812 769.777344 368.132812 770.070312 C 365.652344 770.300781 365.523438 770.503906 365.292969 774.199219 L 365.042969 778.097656 L 367.886719 778.097656 C 370.378906 778.097656 370.796875 777.792969 371.261719 775.664062 Z M 613.671875 795.964844 C 613.457031 794.921875 613.078125 791.792969 612.832031 789.023438 C 612.46875 784.792969 612.660156 783.648438 614.035156 781.894531 C 615.46875 780.082031 616.414062 779.777344 621.179688 779.5625 L 626.671875 779.3125 L 626.917969 775.011719 L 627.179688 770.707031 L 620.195312 771.242188 C 614.035156 771.722656 613.152344 771.621094 612.671875 770.375 C 611.660156 767.734375 614.050781 766.75 622.875 766.140625 C 629.269531 765.722656 631.5 765.824219 631.976562 766.589844 C 632.324219 767.15625 632.425781 770.980469 632.210938 775.113281 C 631.746094 784.097656 631.269531 784.648438 624.066406 784.648438 L 618.90625 784.648438 L 618.90625 792.007812 L 626.671875 792.007812 C 635.050781 792.007812 636.136719 792.691406 632.730469 795.777344 C 631.324219 797.050781 629.46875 797.386719 622.542969 797.617188 C 614.210938 797.890625 614.050781 797.863281 613.671875 795.980469 Z M 182.5625 794.863281 C 181.085938 793.066406 181.96875 783.386719 183.808594 781.359375 C 184.894531 780.15625 186.5625 779.75 191.070312 779.5625 L 196.898438 779.3125 L 197.15625 775.835938 L 197.402344 772.359375 L 191.273438 772.359375 C 184.171875 772.359375 180.738281 771.371094 181.445312 769.53125 C 182.113281 767.777344 186.941406 766.648438 193.679688 766.632812 C 201.75 766.632812 202.15625 767.097656 201.503906 775.402344 C 201.214844 779.097656 200.535156 782.558594 200 783.097656 C 199.402344 783.707031 196.738281 783.996094 192.894531 783.894531 L 186.765625 783.734375 L 186.230469 786.589844 C 185.925781 788.152344 185.925781 789.835938 186.230469 790.3125 C 186.519531 790.792969 189.316406 791.183594 192.445312 791.183594 C 198.621094 791.183594 199.851562 792.34375 196.316406 794.820312 C 193.824219 796.574219 183.996094 796.585938 182.5625 794.820312 Z M 423.25 789.558594 L 423.25 783.007812 L 417.207031 783.007812 C 409.667969 783.007812 408.929688 782.285156 408.929688 774.996094 C 408.929688 767.589844 410.421875 766.503906 420.828125 766.34375 L 428.4375 766.230469 L 428.234375 780.140625 C 428.117188 788.269531 427.667969 794.472656 427.175781 795.082031 C 426.710938 795.644531 425.640625 796.109375 424.785156 796.109375 C 423.410156 796.109375 423.25 795.414062 423.25 789.558594 Z M 422.84375 774.417969 L 422.84375 771.140625 L 418.742188 771.402344 C 416.496094 771.546875 414.421875 771.910156 414.132812 772.214844 C 413.84375 772.519531 413.785156 773.996094 414.015625 775.472656 C 414.4375 778.167969 414.464844 778.167969 418.640625 777.921875 L 422.84375 777.691406 Z M 538.265625 794.472656 C 537.554688 792.242188 538.453125 789.71875 540.324219 788.734375 C 541.527344 788.082031 542.105469 788.269531 543.035156 789.601562 C 543.960938 790.921875 544.933594 791.242188 547.382812 791.039062 C 550.148438 790.804688 550.585938 790.5 550.800781 788.5 L 551.0625 786.226562 L 539.902344 786.691406 L 539.671875 777.792969 C 539.351562 765.578125 539.511719 765.375 549.136719 765.519531 C 553.222656 765.589844 556.992188 765.910156 557.527344 766.242188 C 558.164062 766.632812 558.324219 767.96875 557.960938 770.171875 C 557.339844 774.082031 556.25 775.632812 554.136719 775.632812 C 552.960938 775.632812 552.597656 775.039062 552.597656 773.183594 C 552.597656 770.824219 552.453125 770.722656 548.902344 770.722656 L 545.222656 770.722656 L 545.222656 781.488281 L 550.339844 781.226562 L 555.453125 780.953125 L 555.699219 787.371094 C 555.832031 790.90625 555.570312 794.242188 555.105469 794.789062 C 554.585938 795.414062 551.441406 795.847656 546.542969 795.949219 C 539.425781 796.09375 538.742188 795.949219 538.265625 794.472656 Z M 659.167969 749.652344 C 659.328125 748.78125 660.328125 748.113281 661.675781 747.957031 C 663.484375 747.753906 663.921875 748.027344 663.921875 749.390625 C 663.921875 750.738281 663.414062 751.085938 661.414062 751.085938 C 659.457031 751.085938 658.949219 750.765625 659.167969 749.652344 Z M 186.359375 740.417969 C 179.941406 739.679688 174.75 738.390625 173.128906 737.101562 C 172.648438 736.722656 170.722656 736.171875 168.851562 735.871094 C 165.34375 735.320312 161.128906 732.738281 159.199219 729.984375 C 157.824219 728.015625 157.648438 725.03125 157.734375 704.015625 C 157.808594 685.367188 159.578125 669.035156 161.984375 664.820312 C 164.402344 660.574219 166.996094 659.3125 174.054688 658.90625 C 177.621094 658.703125 187.707031 657.992188 196.492188 657.328125 C 220.214844 655.515625 240.347656 654.890625 240.984375 655.933594 C 241.5625 656.878906 239.898438 657.226562 228.417969 658.574219 C 216.519531 659.964844 179.910156 662.066406 175.824219 661.585938 C 173.679688 661.324219 171.941406 661.425781 171.941406 661.804688 C 171.941406 662.179688 170.851562 662.703125 169.535156 662.964844 C 167.96875 663.269531 166.390625 664.527344 165.027344 666.527344 C 163.199219 669.222656 162.925781 670.46875 162.925781 676.382812 L 162.925781 683.148438 L 172.546875 683.148438 C 177.839844 683.148438 182.996094 683.382812 184.027344 683.65625 C 185.460938 684.035156 186.535156 683.46875 188.738281 681.136719 C 192.535156 677.105469 192.519531 674.050781 188.722656 668.515625 C 185.273438 663.5 185.15625 662.484375 188.070312 662.820312 C 189.5625 662.992188 191.128906 664.195312 192.78125 666.441406 L 195.257812 669.816406 L 205.910156 670.28125 C 211.765625 670.527344 217.503906 670.992188 218.664062 671.28125 C 220.578125 671.773438 220.910156 671.484375 222.1875 668.109375 C 224.027344 663.324219 226.492188 660.226562 228.476562 660.226562 C 230.449219 660.226562 230.460938 660.09375 228.027344 664.847656 C 225.375 670.019531 224.460938 677.46875 226.171875 680.078125 C 227.390625 681.933594 227.550781 681.960938 235.765625 681.238281 C 241.085938 680.757812 245.070312 680.789062 246.710938 681.308594 L 249.289062 682.105469 L 245.609375 683.773438 C 243.578125 684.6875 239.347656 685.671875 236.203125 685.945312 C 224.375 687.035156 224.449219 687.003906 223.449219 690.757812 C 222.375 694.742188 222.839844 698.570312 224.765625 701.496094 L 226.15625 703.613281 L 251.347656 703.613281 L 251.347656 691.539062 C 251.347656 684.902344 251.5625 677.078125 251.839844 674.152344 C 252.289062 669.179688 252.171875 668.628906 250 665.875 C 248.722656 664.253906 246.476562 662.035156 245.027344 660.964844 C 243.578125 659.890625 242.375 658.542969 242.359375 657.980469 C 242.316406 656.023438 246.160156 656.980469 249.375 659.730469 C 255.042969 664.585938 255.449219 667.167969 255.347656 697.960938 C 255.261719 724.117188 254.765625 734.476562 253.621094 734.128906 C 253.304688 734.042969 251.957031 735.058594 250.621094 736.390625 C 247.722656 739.273438 246.214844 739.492188 246.578125 736.96875 C 246.722656 735.914062 248.171875 734.273438 249.96875 733.101562 C 252.957031 731.1875 253.085938 730.914062 252.621094 727.785156 C 252.347656 725.972656 251.914062 720.683594 251.636719 716.015625 L 251.144531 707.566406 L 248.578125 708.003906 C 247.171875 708.25 241.839844 708.554688 236.722656 708.667969 C 227.808594 708.886719 227.390625 708.972656 226.695312 710.8125 C 225.449219 714.089844 225.898438 718.597656 227.925781 722.855469 C 230.449219 728.175781 235.042969 733.085938 237.492188 733.085938 C 238.839844 733.085938 239.144531 733.332031 238.507812 733.957031 C 236.824219 735.652344 228.417969 733.40625 225.375 730.449219 L 222.652344 727.8125 L 217.144531 729.230469 C 210.070312 731.042969 195.519531 731.1875 194.085938 729.449219 C 193.300781 728.507812 193.519531 728.015625 195.257812 726.882812 C 197.128906 725.652344 198.96875 725.535156 210.027344 725.929688 C 222.144531 726.378906 222.636719 726.335938 221.867188 724.886719 C 220.59375 722.523438 220.898438 713.667969 222.332031 710.886719 C 223.550781 708.523438 223.519531 708.363281 221.5625 706.828125 C 217.332031 703.496094 216.664062 694.742188 220.144531 688.0625 C 221.707031 685.0625 221.808594 684.238281 221 681.746094 C 220.476562 680.179688 220.246094 677.671875 220.492188 676.179688 C 220.722656 674.703125 220.753906 673.296875 220.535156 673.078125 C 220.316406 672.859375 218.042969 673.195312 215.476562 673.804688 C 212.910156 674.410156 207.605469 674.917969 203.679688 674.933594 L 196.535156 674.933594 L 194.824219 678.28125 C 193.882812 680.121094 192.042969 682.238281 190.722656 682.992188 C 188.332031 684.339844 187.5625 685.585938 189.113281 685.585938 C 189.546875 685.585938 191.027344 687.511719 192.375 689.875 C 195.578125 695.453125 195.738281 700.320312 192.839844 703.234375 L 190.808594 705.265625 L 192.59375 708.667969 C 197.535156 718.160156 193.953125 730.769531 185.445312 733.839844 C 183.011719 734.710938 183.011719 734.695312 184.738281 733.277344 C 189.5625 729.304688 191.1875 718.261719 187.996094 711.175781 C 186.492188 707.828125 186.375 707.757812 183.085938 708.132812 C 177.140625 708.8125 163.839844 710.132812 162.96875 710.132812 C 162.433594 710.132812 162.113281 713.191406 162.113281 718.292969 L 162.113281 726.449219 L 166.910156 730.449219 L 171.722656 734.449219 L 184.648438 735.523438 C 193.59375 736.261719 204.953125 736.433594 221.390625 736.117188 C 242.347656 735.695312 244.882812 735.769531 242.5625 736.796875 C 235.027344 740.101562 202.214844 742.214844 186.359375 740.40625 Z M 169.070312 704.378906 C 171.316406 703.972656 176.839844 703.480469 181.316406 703.308594 C 188.621094 702.988281 189.546875 702.785156 190.230469 701.25 C 191.1875 699.132812 189.054688 693.164062 186.113281 689.65625 L 184.070312 687.238281 L 162.113281 687.238281 L 162.113281 696.742188 C 162.113281 705.453125 162.230469 706.191406 163.546875 705.683594 C 164.332031 705.378906 166.824219 704.785156 169.070312 704.378906 Z M 651.644531 712.929688 C 651.644531 712.609375 653.863281 710.046875 656.558594 707.234375 C 659.253906 704.410156 661.472656 701.570312 661.472656 700.917969 C 661.472656 699.191406 663.371094 697.84375 664.675781 698.65625 C 666.832031 699.988281 664.832031 703.394531 659.253906 707.828125 C 652.875 712.902344 651.644531 713.726562 651.644531 712.929688 Z M 300.042969 654.835938 C 301.40625 653.71875 310.609375 646.644531 320.507812 639.125 C 341.203125 623.445312 350.972656 615.214844 365.015625 601.679688 C 374.785156 592.261719 378.335938 590 373.652344 596.160156 C 370.191406 600.710938 357.753906 612.78125 348.8125 620.273438 C 344.507812 623.878906 333.421875 632.183594 324.203125 638.734375 C 314.972656 645.269531 305.535156 652.050781 303.246094 653.789062 C 298.652344 657.28125 296.160156 658.09375 300.042969 654.835938 Z M 420.800781 632.371094 C 420.800781 630.371094 422.988281 629.34375 424.335938 630.707031 C 425.074219 631.460938 424.929688 631.953125 423.710938 632.863281 C 421.539062 634.460938 420.800781 634.328125 420.800781 632.371094 Z M 188.882812 632.691406 C 187.78125 631.589844 189.34375 630.765625 192.503906 630.765625 C 194.332031 630.765625 199.621094 629.316406 204.476562 627.488281 C 213.636719 624.027344 216.953125 623.460938 216.953125 625.34375 C 216.953125 626.75 213.753906 630.734375 213.707031 629.371094 C 213.695312 628.835938 214.054688 628.171875 214.503906 627.894531 C 214.953125 627.621094 215.316406 626.996094 215.316406 626.53125 C 215.316406 625.359375 212.492188 626.140625 202.59375 629.996094 C 194.910156 632.996094 190.113281 633.9375 188.882812 632.691406 Z M 185.027344 628.023438 C 185.027344 627.023438 194.054688 615.488281 200.476562 608.246094 C 203.679688 604.652344 206.300781 601.332031 206.300781 600.882812 C 206.316406 600.433594 207.605469 599.027344 209.1875 597.765625 C 212.417969 595.1875 214.230469 595.449219 212.738281 598.273438 C 210.707031 602.113281 185.027344 629.691406 185.027344 628.023438 Z M 428.613281 617.9375 C 442.207031 605.027344 459.570312 589.375 460.539062 589.160156 C 464.421875 588.289062 459.121094 594.101562 447.394531 603.578125 C 444.25 606.128906 438.539062 610.824219 434.714844 613.996094 C 426.742188 620.621094 423.742188 622.5625 428.613281 617.9375 Z M 257.417969 610.695312 C 259.101562 609.417969 260.042969 609.621094 259.144531 611.054688 C 258.855469 611.546875 257.984375 611.925781 257.230469 611.910156 C 256.015625 611.910156 256.042969 611.738281 257.417969 610.695312 Z M 627.949219 598.144531 C 627.917969 596.636719 628.660156 591.695312 629.585938 587.175781 C 630.917969 580.652344 631.050781 578.796875 630.238281 578.289062 C 629.441406 577.796875 629.558594 577.261719 630.730469 575.972656 C 633.542969 572.855469 634.746094 573.753906 634.195312 578.582031 C 633.527344 584.550781 628.019531 601.808594 627.949219 598.144531 Z M 650.832031 599.304688 C 650.832031 599.101562 651.371094 596.609375 652.023438 593.769531 C 652.6875 590.914062 653.324219 586.015625 653.457031 582.871094 C 653.644531 578.4375 653.964844 577.144531 654.921875 577.144531 C 656.542969 577.144531 656.976562 582.363281 655.761719 587.320312 C 653.761719 595.535156 652.382812 599.652344 651.617188 599.652344 C 651.179688 599.652344 650.832031 599.492188 650.832031 599.289062 Z M 105.621094 586.667969 C 105.621094 579.550781 109.519531 571.828125 113.082031 571.828125 C 115.5625 571.828125 115.574219 573.261719 113.097656 575.015625 C 111.300781 576.304688 110.199219 578.378906 108.472656 583.683594 C 107.226562 587.507812 106.070312 590.652344 105.910156 590.652344 C 105.75 590.652344 105.621094 588.855469 105.621094 586.667969 Z M 569.875 589.710938 C 562.570312 587.609375 559.542969 583.058594 559.613281 574.261719 C 559.671875 567.335938 561.917969 561.234375 566.265625 556.234375 C 567.613281 554.683594 568.570312 552.976562 568.398438 552.46875 C 568.207031 551.929688 568.410156 551.292969 568.832031 551.03125 C 569.25 550.773438 566.46875 544.933594 562.628906 538.0625 C 558.789062 531.195312 552.902344 519.875 549.542969 512.890625 C 546.195312 505.921875 542.035156 497.253906 540.292969 493.660156 C 537.597656 488.082031 536.164062 486.257812 530.570312 481.375 C 526.945312 478.230469 520.019531 470.679688 515.164062 464.59375 C 503.003906 449.363281 495.785156 441.332031 478.074219 423.261719 C 469.699219 414.714844 459.367188 403.65625 455.121094 398.714844 C 450.871094 393.757812 444.917969 387.265625 441.871094 384.28125 C 436.21875 378.71875 435.4375 377.3125 437.539062 376.5 C 439.03125 375.933594 450.625 384.773438 454.164062 389.164062 C 455.554688 390.902344 468.0625 403.945312 481.929688 418.132812 C 500.539062 437.175781 510.0625 447.621094 518.207031 458.011719 C 524.292969 465.75 532.394531 475.488281 536.222656 479.648438 C 542.25 486.226562 544.148438 489.097656 550.542969 501.3125 C 554.597656 509.050781 561.832031 522.46875 566.613281 531.121094 L 575.308594 546.859375 L 581.355469 547.46875 C 589.441406 548.292969 594.019531 550.714844 597.195312 555.84375 C 599.441406 559.464844 599.660156 560.464844 599.660156 566.84375 C 599.660156 574.855469 598.585938 577.742188 593.425781 583.609375 C 588.992188 588.652344 584.5 590.667969 577.917969 590.578125 C 575.019531 590.507812 571.398438 590.144531 569.875 589.710938 Z M 586.859375 583.753906 C 590.730469 581.753906 593.789062 576.4375 594.179688 571.03125 C 594.917969 560.757812 589.847656 554.234375 579.917969 552.714844 C 577.035156 552.277344 576.078125 552.539062 573.222656 554.613281 C 571.398438 555.929688 568.859375 558.785156 567.585938 560.945312 C 565.570312 564.378906 565.28125 565.699219 565.28125 571.550781 C 565.28125 577.550781 565.5 578.464844 567.324219 580.449219 C 568.453125 581.683594 570.484375 583.160156 571.832031 583.769531 C 575.121094 585.230469 584.019531 585.21875 586.859375 583.769531 Z M 236.535156 588.753906 C 231.535156 586.898438 226.59375 583.03125 224.824219 579.609375 C 221.316406 572.796875 223.550781 558.46875 229.621094 548.800781 C 232.855469 543.65625 234.144531 542.945312 243.042969 541.441406 L 249.070312 540.425781 L 265.171875 520.730469 C 274.015625 509.890625 286.375 494.574219 292.636719 486.707031 C 298.898438 478.824219 307.085938 468.765625 310.839844 464.359375 C 314.582031 459.953125 317.652344 456.042969 317.652344 455.664062 C 317.652344 455.289062 323.449219 450 330.535156 443.898438 C 343.074219 433.132812 346.40625 430.101562 373.855469 404.671875 C 389.058594 390.585938 397.652344 383.570312 399.699219 383.570312 C 402.304688 383.570312 401.234375 385.804688 396.871094 389.425781 C 392.363281 393.179688 380 404.394531 357.449219 425.203125 C 349.957031 432.132812 338.492188 442.289062 332 447.78125 C 324.898438 453.796875 319.03125 459.476562 317.332031 462.011719 C 315.769531 464.332031 311.769531 469.460938 308.464844 473.402344 C 305.144531 477.34375 295.203125 489.589844 286.363281 500.617188 C 277.535156 511.644531 266.417969 525.265625 261.679688 530.90625 C 254.476562 539.46875 253.273438 541.265625 254.363281 541.945312 C 266.332031 549.582031 267.535156 550.570312 268.839844 553.800781 C 270.550781 558.089844 270.578125 568.496094 268.882812 574.203125 C 267.390625 579.246094 262.492188 585.015625 257.519531 587.59375 C 253.347656 589.769531 241.042969 590.449219 236.535156 588.753906 Z M 253 584.015625 C 258.070312 582.929688 262.289062 579.492188 263.738281 575.261719 C 265.101562 571.261719 265.128906 559.800781 263.78125 556.613281 C 262.59375 553.800781 256.476562 548.785156 251.914062 546.875 C 247.5625 545.0625 241.710938 545.308594 237.390625 547.484375 C 232.898438 549.742188 229.882812 555.148438 228.347656 563.726562 C 226.652344 573.21875 229.214844 579.886719 235.433594 582.234375 C 242.171875 584.769531 247.144531 585.277344 253 584.03125 Z M 731.804688 582.421875 C 731.761719 582.21875 731.546875 580.234375 731.328125 578 C 730.660156 571.351562 727.039062 565.421875 717.617188 555.570312 C 712.253906 549.945312 702.558594 543.078125 697.777344 541.496094 C 696.136719 540.960938 693.238281 540.742188 691.238281 541.019531 C 687.210938 541.570312 686.484375 540.410156 689.285156 537.875 C 690.441406 536.816406 692.183594 536.425781 695.542969 536.453125 C 706.574219 536.554688 723.5 549.367188 730.195312 562.683594 C 732.429688 567.132812 734.253906 580.421875 732.820312 581.839844 C 732.296875 582.363281 731.835938 582.625 731.804688 582.433594 Z M 82.894531 571.929688 C 83.414062 562.683594 85.835938 557.121094 92.054688 550.902344 C 98.125 544.84375 106.039062 541.367188 107.691406 544.035156 C 108.53125 545.382812 106.75 546.917969 103.054688 548.019531 C 95.519531 550.28125 85.445312 564.902344 84.53125 574.898438 C 84.316406 577.261719 83.765625 579.1875 83.316406 579.1875 C 82.777344 579.1875 82.632812 576.566406 82.894531 571.929688 Z M 193.085938 572.25 C 192.867188 572.03125 177.765625 571.800781 159.519531 571.753906 C 139.417969 571.699219 125.910156 571.363281 125.199219 570.886719 C 124.445312 570.351562 136.417969 570.191406 159.894531 570.40625 C 185.664062 570.652344 195.996094 571 196.695312 571.699219 C 197.402344 572.421875 197.144531 572.652344 195.5625 572.652344 C 194.417969 572.652344 193.316406 572.464844 193.085938 572.25 Z M 296.128906 562.191406 C 282.363281 562.003906 279.855469 561.785156 279.433594 560.699219 C 279.171875 559.988281 279.566406 558.800781 280.320312 558.046875 C 281.59375 556.785156 292.058594 556.671875 422.117188 556.539062 C 547.25 556.410156 562.484375 556.539062 562.0625 557.640625 C 561.800781 558.320312 561.367188 559.785156 561.09375 560.886719 L 560.585938 562.886719 L 436.453125 562.65625 C 368.191406 562.523438 305.042969 562.320312 296.128906 562.191406 Z M 371.335938 545.84375 C 372.21875 538.222656 375.234375 524.964844 386.800781 477.691406 C 405.640625 400.671875 407.191406 393.992188 407.089844 390.121094 C 407.03125 388.09375 406.046875 383.324219 404.886719 379.515625 C 403.726562 375.71875 402.785156 371.210938 402.785156 369.515625 C 402.785156 366.382812 404.378906 364.195312 418.421875 348.125 C 421.554688 344.546875 421.757812 344.023438 420.871094 342.082031 C 420.21875 340.648438 420.089844 337.765625 420.453125 333.242188 L 421.003906 326.535156 L 412.914062 325.996094 C 404.074219 325.402344 391.480469 322.636719 382.769531 319.359375 C 367.089844 313.449219 348.738281 301.679688 337.304688 290.203125 C 317.769531 270.582031 310.464844 248.628906 312.769531 216.328125 C 313.726562 202.792969 315.128906 195.5625 318.972656 184.417969 C 328.144531 157.824219 345.089844 136.003906 364.175781 126.191406 C 366.753906 124.871094 382.21875 119.234375 396.539062 114.394531 C 402.699219 112.324219 403.21875 111.945312 408.21875 105.945312 C 417.175781 95.210938 427.496094 87.324219 440.757812 81.082031 C 454.625 74.558594 468.640625 71.226562 479.394531 71.894531 C 486.222656 72.328125 487.425781 72.847656 486.324219 74.90625 C 485.65625 76.152344 484.019531 76.441406 475.46875 76.847656 C 464.453125 77.371094 456.929688 79.023438 446.132812 83.28125 C 434.234375 87.976562 419.292969 98.457031 412.800781 106.65625 L 410.335938 109.773438 L 425.597656 109.773438 C 437.25 109.773438 442.726562 110.136719 448.800781 111.324219 C 454.726562 112.484375 457.046875 112.640625 457.859375 111.960938 C 459.816406 110.351562 473.714844 105.324219 481.960938 103.25 C 504.335938 97.644531 528.859375 100.050781 528.859375 107.84375 C 528.859375 109.933594 525.46875 109.832031 519.367188 107.570312 C 515.265625 106.0625 512.84375 105.789062 503.484375 105.816406 C 496.179688 105.816406 490.367188 106.296875 486.367188 107.207031 C 478.582031 108.960938 462.539062 114.28125 462.539062 115.105469 C 462.539062 115.453125 464.105469 116.351562 466.019531 117.105469 C 472.410156 119.613281 485.234375 127.308594 492.554688 133.015625 C 513.351562 149.234375 526.078125 168.753906 532.554688 194.402344 C 540.25 224.90625 534.367188 253.121094 514.324219 281.8125 C 502.019531 299.449219 482.277344 313.824219 460.742188 320.882812 C 450.351562 324.289062 444.089844 325.519531 433.902344 326.1875 L 426.132812 326.679688 L 425.191406 333.230469 C 424.667969 336.824219 423.988281 340.546875 423.683594 341.503906 C 423.292969 342.691406 423.871094 344.460938 425.554688 347.226562 C 427.960938 351.183594 429.277344 354.109375 433.523438 365.023438 L 435.714844 370.628906 L 431.726562 374.671875 C 428.523438 377.933594 424.132812 381.296875 415.261719 387.253906 C 415.148438 387.339844 415.785156 389.0625 416.683594 391.105469 C 421.410156 401.773438 427.800781 442.625 432.234375 490.445312 C 435.378906 524.222656 437.667969 543.019531 439.292969 548.292969 C 439.714844 549.640625 437.714844 549.730469 405.304688 549.730469 L 370.886719 549.730469 L 371.335938 545.832031 Z M 447.277344 318.851562 C 480.191406 312.160156 503.4375 294.785156 518.585938 265.539062 C 526.832031 249.597656 529.292969 239.019531 529.207031 219.863281 C 529.0625 185.214844 510.453125 152.277344 479.726562 132.308594 C 470.625 126.378906 455.378906 119.4375 446.988281 117.394531 C 440.175781 115.742188 437.175781 115.496094 422.84375 115.496094 C 408.207031 115.496094 406.234375 115.671875 404.21875 117.03125 C 402.609375 118.121094 401.667969 118.308594 400.945312 117.714844 C 400.234375 117.132812 398.539062 117.207031 395.421875 117.960938 L 390.914062 119.046875 L 394.191406 119.132812 C 395.988281 119.207031 398.015625 119.570312 398.683594 119.988281 C 401.117188 121.523438 398.046875 122.640625 389.550781 123.308594 C 379.277344 124.105469 374.320312 125.539062 364.726562 130.511719 C 347.8125 139.277344 331.609375 160.578125 323.871094 184.257812 C 320.652344 194.070312 319.390625 200.980469 318.363281 214.488281 C 316.03125 244.628906 322.914062 265.582031 341.335938 284.4375 C 358.449219 301.984375 383.710938 315.144531 408.105469 319.273438 C 418.667969 321.054688 437.421875 320.851562 447.277344 318.851562 Z M 400.769531 285.304688 C 388.699219 283.40625 378.21875 277.84375 372.796875 270.46875 C 370.4375 267.25 369.945312 266.03125 370.597656 264.988281 C 372.191406 262.4375 374.4375 263.105469 378.640625 267.378906 C 383.550781 272.363281 391.929688 276.710938 399.914062 278.378906 C 407.292969 279.929688 423.191406 279.957031 430.363281 278.453125 C 448.65625 274.554688 468.875 262.714844 478.132812 250.441406 C 481.582031 245.875 483.003906 245.484375 483.003906 249.105469 C 483.003906 252.164062 480.308594 256.0625 474.65625 261.179688 C 463.570312 271.207031 448.421875 279.582031 434.394531 283.40625 C 425.929688 285.710938 409.261719 286.667969 400.769531 285.335938 Z M 444.003906 210.820312 C 435.21875 208.167969 432.292969 196.285156 438.421875 188.230469 C 442.277344 183.199219 453.714844 181.445312 458.65625 185.140625 C 462.929688 188.359375 464.410156 191.578125 464.03125 196.851562 C 463.640625 202.300781 461.25 206.242188 456.625 209.066406 C 453.378906 211.066406 447.511719 211.878906 444.003906 210.820312 Z M 379.449219 203.328125 C 376.234375 201.472656 375.699219 200.039062 376.046875 194.285156 C 376.609375 184.722656 382.347656 178.953125 391.507812 178.75 C 395.203125 178.664062 395.914062 178.941406 398.003906 181.257812 C 403.945312 187.925781 398.277344 199.632812 387.320312 203.359375 C 383.84375 204.546875 381.566406 204.53125 379.449219 203.300781 Z M 486.292969 189.027344 C 486.292969 188.054688 485.742188 186.214844 485.089844 184.9375 C 484.425781 183.664062 483.265625 180.851562 482.511719 178.707031 C 479.148438 169.171875 466.222656 161.753906 453.003906 161.753906 C 448.265625 161.753906 446.988281 161.492188 446.988281 160.550781 C 446.988281 158.390625 450.496094 157.347656 457.625 157.347656 C 476.132812 157.347656 490.207031 169.535156 488.394531 183.984375 C 487.816406 188.707031 486.324219 192.285156 486.292969 189.027344 Z M 355.625 165.492188 C 354.175781 161.722656 364.160156 151.246094 373.609375 146.59375 C 386.566406 140.21875 404.03125 139.597656 411.015625 145.246094 L 412.871094 146.753906 L 411.191406 148.421875 L 409.523438 150.101562 L 404.726562 148.480469 C 398.683594 146.4375 386.015625 146.753906 379.046875 149.132812 C 372.769531 151.277344 365.304688 156.507812 361.726562 161.273438 C 358.132812 166.058594 356.320312 167.304688 355.625 165.492188 Z M 355.625 165.492188 " fill-opacity="1" fill-rule="nonzero"/></g><g fill="#000000" fill-opacity="1"><g transform="translate(516.332955, 893.585427)"><g><path d="M 4.859375 0.109375 L 2.21875 0 L 2.21875 -13.625 C 2.414062 -16.539062 2.570312 -19.128906 2.6875 -21.390625 C 2.800781 -23.648438 3.015625 -25.597656 3.328125 -27.234375 C 3.640625 -28.878906 4.144531 -30.253906 4.84375 -31.359375 C 5.550781 -32.472656 6.609375 -33.359375 8.015625 -34.015625 C 10.546875 -35.265625 15.203125 -35.890625 21.984375 -35.890625 C 24.898438 -35.890625 27.367188 -35.609375 29.390625 -35.046875 C 31.421875 -34.484375 32.925781 -33.945312 33.90625 -33.4375 C 36.125 -32.34375 37.234375 -30.820312 37.234375 -28.875 C 37.234375 -26.925781 36.675781 -25.160156 35.5625 -23.578125 C 34.457031 -22.003906 33.015625 -20.640625 31.234375 -19.484375 C 29.460938 -18.335938 27.46875 -17.394531 25.25 -16.65625 C 23.03125 -15.914062 20.8125 -15.3125 18.59375 -14.84375 C 14.613281 -14.0625 10.789062 -13.671875 7.125 -13.671875 L 6.890625 -0.578125 C 6.890625 -0.117188 6.210938 0.109375 4.859375 0.109375 Z M 7.078125 -20.28125 C 7.078125 -18.332031 7.914062 -17.359375 9.59375 -17.359375 C 9.820312 -17.359375 10.226562 -17.367188 10.8125 -17.390625 C 11.394531 -17.410156 12.414062 -17.46875 13.875 -17.5625 C 15.34375 -17.664062 16.894531 -17.863281 18.53125 -18.15625 C 20.164062 -18.445312 21.8125 -18.820312 23.46875 -19.28125 C 25.125 -19.75 26.613281 -20.335938 27.9375 -21.046875 C 30.9375 -22.679688 32.4375 -24.765625 32.4375 -27.296875 C 31.851562 -29.828125 29.535156 -31.445312 25.484375 -32.15625 C 24.273438 -32.382812 23.191406 -32.5 22.234375 -32.5 C 21.285156 -32.5 20.15625 -32.445312 18.84375 -32.34375 C 17.539062 -32.25 16.03125 -31.945312 14.3125 -31.4375 C 12.601562 -30.9375 11.164062 -30.257812 10 -29.40625 C 8.832031 -28.550781 8.1875 -27.554688 8.0625 -26.421875 C 8.03125 -25.953125 7.9375 -25.40625 7.78125 -24.78125 C 7.3125 -22.789062 7.078125 -21.289062 7.078125 -20.28125 Z M 7.078125 -20.28125 "/></g></g></g><g fill="#000000" fill-opacity="1"><g transform="translate(554.49959, 893.585427)"><g><path d="M 20.640625 -37.125 C 24.535156 -37.125 27.125 -36.867188 28.40625 -36.359375 L 28.40625 -33.5 C 27.351562 -33.34375 25.910156 -33.253906 24.078125 -33.234375 C 22.253906 -33.210938 20.304688 -33.179688 18.234375 -33.140625 C 12.472656 -33.023438 8.539062 -32.734375 6.4375 -32.265625 C 5.769531 -29.148438 5.453125 -27.023438 5.484375 -25.890625 C 5.523438 -24.765625 5.566406 -23.890625 5.609375 -23.265625 C 5.765625 -21.742188 5.84375 -19.953125 5.84375 -17.890625 C 8.5 -17.890625 11.53125 -18.125 14.9375 -18.59375 C 18.34375 -19.0625 20.976562 -19.398438 22.84375 -19.609375 C 24.71875 -19.828125 26.648438 -19.9375 28.640625 -19.9375 L 28.640625 -16.71875 L 6.25 -13.90625 L 6.609375 -4.328125 C 10.460938 -4.328125 14.40625 -4.507812 18.4375 -4.875 C 22.476562 -5.25 25.539062 -5.523438 27.625 -5.703125 C 29.707031 -5.878906 31.914062 -5.96875 34.25 -5.96875 C 34.25 -5.1875 34.015625 -4.441406 33.546875 -3.734375 C 32.617188 -2.492188 31.785156 -2.125 31.046875 -2.625 C 24.179688 -1.882812 18.050781 -1.300781 12.65625 -0.875 C 7.257812 -0.445312 3.625 -0.15625 1.75 0 L 1.984375 -37.296875 C 2.992188 -36.984375 4.863281 -36.828125 7.59375 -36.828125 Z M 20.640625 -37.125 "/></g></g></g><g fill="#000000" fill-opacity="1"><g transform="translate(589.919162, 893.585427)"><g><path d="M 17.421875 -13.15625 C 16.410156 -12.332031 15.460938 -11.21875 14.578125 -9.8125 C 13.703125 -8.414062 12.804688 -7.050781 11.890625 -5.71875 C 10.972656 -4.394531 10.007812 -3.242188 9 -2.265625 C 7.988281 -1.296875 6.890625 -0.8125 5.703125 -0.8125 C 4.515625 -0.8125 3.6875 -0.976562 3.21875 -1.3125 C 2.75 -1.644531 2.515625 -2.070312 2.515625 -2.59375 C 2.515625 -3.125 2.535156 -3.546875 2.578125 -3.859375 L 13.671875 -17.015625 C 11.648438 -19.503906 9.945312 -21.625 8.5625 -23.375 C 7.175781 -25.132812 6.035156 -26.578125 5.140625 -27.703125 C 4.242188 -28.835938 3.550781 -29.722656 3.0625 -30.359375 C 2.582031 -31.003906 2.234375 -31.472656 2.015625 -31.765625 C 1.796875 -32.054688 1.648438 -32.28125 1.578125 -32.4375 C 1.578125 -33.21875 2.101562 -33.765625 3.15625 -34.078125 C 4.050781 -34.347656 4.832031 -34.3125 5.5 -33.96875 L 16.71875 -20.40625 L 30.6875 -36.890625 L 34.078125 -34.140625 L 20.046875 -17.484375 C 21.367188 -15.691406 22.878906 -14.160156 24.578125 -12.890625 C 26.273438 -11.617188 27.863281 -10.425781 29.34375 -9.3125 C 30.820312 -8.207031 32.054688 -7.085938 33.046875 -5.953125 C 34.046875 -4.828125 34.546875 -3.503906 34.546875 -1.984375 C 34.429688 -1.085938 34.019531 -0.484375 33.3125 -0.171875 C 33.164062 -0.0976562 32.894531 -0.0625 32.5 -0.0625 C 32.113281 -0.0625 31.53125 -0.351562 30.75 -0.9375 Z M 17.421875 -13.15625 "/></g></g></g><g fill="#000000" fill-opacity="1"><g transform="translate(625.80632, 893.585427)"><g><path d="M 28.640625 -28.703125 L 23.4375 -28.8125 C 22.070312 -28.8125 20.492188 -28.675781 18.703125 -28.40625 C 18.628906 -26.882812 18.472656 -24.914062 18.234375 -22.5 C 17.421875 -13.925781 17.015625 -8.363281 17.015625 -5.8125 C 17.015625 -3.257812 17.050781 -1.457031 17.125 -0.40625 L 11.640625 0 L 13.4375 -28.875 L 1 -29.578125 C 0.6875 -29.578125 0.441406 -29.828125 0.265625 -30.328125 C 0.0859375 -30.835938 0 -31.304688 0 -31.734375 C 0 -32.171875 0.171875 -32.640625 0.515625 -33.140625 C 0.867188 -33.648438 1.28125 -33.90625 1.75 -33.90625 C 4.59375 -33.789062 7.457031 -33.59375 10.34375 -33.3125 C 15.6875 -32.851562 20.226562 -32.625 23.96875 -32.625 L 27.59375 -32.734375 C 30.4375 -32.816406 33.257812 -33.128906 36.0625 -33.671875 C 36.6875 -33.554688 37.078125 -32.582031 37.234375 -30.75 C 37.273438 -30.351562 37.296875 -30.039062 37.296875 -29.8125 C 34.722656 -29.070312 31.835938 -28.703125 28.640625 -28.703125 Z M 28.640625 -28.703125 "/></g></g></g></svg>