<svg width="79" height="116" viewBox="0 0 79 116" fill="none" xmlns="http://www.w3.org/2000/svg">
<path fill-rule="evenodd" clip-rule="evenodd" d="M26.4562 93.4942L36.4521 112.501L40.0735 110.803L28.5927 88.972L38.8467 67.2684L35.1606 65.7151L26.2644 84.5448L16.2303 65.4649L12.6089 67.1636L24.1279 89.067L13.3196 111.944L17.0057 113.497L26.4562 93.4942Z" fill="#28D14D"/>
<path d="M39.3184 13.2004V115.2" stroke="#111211" stroke-width="4"/>
<path d="M14.3184 13.2004H39.3184" stroke="#111211" stroke-width="4"/>
<line x1="12.3184" y1="65.2004" x2="40.3184" y2="65.2004" stroke="#111211" stroke-width="4"/>
<line x1="12.3184" y1="113.2" x2="40.3184" y2="113.2" stroke="#111211" stroke-width="4"/>
<path d="M39.2414 66.7482C46.5656 66.3907 53.5701 63.1348 58.714 57.697C63.858 52.2591 66.72 45.0847 66.6706 37.752C66.6211 30.4193 63.6641 23.5289 58.4501 18.5968C53.2362 13.6646 46.1923 11.0946 38.8682 11.4522L38.896 15.5768C45.1275 15.2726 51.1205 17.4592 55.5567 21.6555C59.9928 25.8519 62.5086 31.7143 62.5507 37.9531C62.5928 44.1919 60.1578 50.296 55.7812 54.9227C51.4046 59.5493 45.4451 62.3194 39.2136 62.6236L39.2414 66.7482Z" fill="#111211"/>
</svg>
